<svg width="18.000000" height="18.000000" viewBox="0 0 18 18" fill="none" xmlns="http://www.w3.org/2000/svg" xmlns:xlink="http://www.w3.org/1999/xlink">
	<desc>
			Created with Pixso.
	</desc>
	<defs/>
	<path id="Vector" d="M17 0L0.99 0C0.73 0 0.48 0.1 0.29 0.29C0.1 0.48 0 0.73 0 0.99L0 17C0 17.26 0.1 17.51 0.29 17.7C0.48 17.89 0.73 17.99 0.99 18L9.61 18L9.61 11.04L7.27 11.04L7.27 8.31L9.61 8.31L9.61 6.31C9.61 3.98 11.03 2.72 13.11 2.72C13.81 2.72 14.51 2.72 15.21 2.82L15.21 5.25L13.77 5.25C12.64 5.25 12.42 5.79 12.42 6.57L12.42 8.31L15.12 8.31L14.77 11.03L12.42 11.03L12.42 18L17 18C17.26 17.99 17.51 17.89 17.7 17.7C17.89 17.51 17.99 17.26 18 17L18 0.99C17.99 0.73 17.89 0.48 17.7 0.29C17.51 0.1 17.26 0 17 0Z" fill="#FFFFFF" fill-opacity="1.000000" fill-rule="nonzero"/>
</svg>
