<svg width="18.000000" height="18.000000" viewBox="0 0 18 18" fill="none" xmlns="http://www.w3.org/2000/svg" xmlns:xlink="http://www.w3.org/1999/xlink">
	<desc>
			Created with Pixso.
	</desc>
	<defs/>
	<path id="Vector" d="M5.28 0.05C6.24 0.01 6.55 0 9 0C11.44 0 11.75 0.01 12.71 0.05C13.45 0.06 14.19 0.21 14.89 0.47C15.49 0.7 16.03 1.05 16.48 1.51C16.94 1.96 17.29 2.5 17.52 3.1C17.78 3.8 17.93 4.54 17.94 5.28C17.98 6.24 18 6.55 18 9C18 11.44 17.98 11.75 17.94 12.71C17.93 13.45 17.79 14.19 17.52 14.89C17.29 15.49 16.94 16.03 16.48 16.48C16.03 16.94 15.49 17.29 14.89 17.52C14.19 17.78 13.45 17.93 12.71 17.94C11.75 17.98 11.44 18 9 18C6.55 18 6.24 17.98 5.29 17.94C4.54 17.93 3.8 17.78 3.1 17.52C2.5 17.29 1.96 16.94 1.51 16.48C1.05 16.03 0.7 15.49 0.47 14.89C0.21 14.19 0.06 13.45 0.05 12.71C0.01 11.75 0 11.44 0 9C0 6.55 0.01 6.24 0.05 5.28C0.06 4.54 0.21 3.8 0.47 3.1C0.7 2.5 1.05 1.96 1.51 1.51C1.96 1.05 2.5 0.7 3.1 0.47C3.8 0.21 4.54 0.06 5.28 0.05ZM12.63 1.67C11.68 1.63 11.4 1.62 9 1.62C6.59 1.62 6.31 1.63 5.36 1.67C4.79 1.68 4.22 1.78 3.69 1.98C3.3 2.13 2.95 2.36 2.65 2.65C2.36 2.95 2.13 3.3 1.98 3.69C1.78 4.22 1.68 4.79 1.67 5.36C1.63 6.31 1.62 6.59 1.62 9C1.62 11.4 1.63 11.68 1.67 12.63C1.68 13.2 1.78 13.77 1.98 14.3C2.13 14.69 2.36 15.04 2.65 15.34C2.95 15.63 3.3 15.86 3.69 16.01C4.22 16.21 4.79 16.31 5.36 16.32C6.31 16.36 6.59 16.37 9 16.37C11.4 16.37 11.68 16.36 12.63 16.32C13.2 16.31 13.77 16.21 14.3 16.01C14.69 15.86 15.04 15.63 15.34 15.34C15.63 15.04 15.86 14.69 16.01 14.3C16.21 13.77 16.31 13.2 16.32 12.63C16.36 11.68 16.37 11.4 16.37 9C16.37 6.59 16.36 6.31 16.32 5.36C16.31 4.79 16.21 4.22 16.01 3.69C15.86 3.3 15.63 2.95 15.34 2.65C15.04 2.36 14.69 2.13 14.3 1.98C13.77 1.78 13.2 1.68 12.63 1.67ZM13.8 5.27C14.4 5.27 14.88 4.79 14.88 4.19C14.88 3.59 14.4 3.11 13.8 3.11C13.2 3.11 12.72 3.59 12.72 4.19C12.72 4.79 13.2 5.27 13.8 5.27ZM9 4.37C8.08 4.37 7.19 4.64 6.43 5.15C5.67 5.66 5.08 6.38 4.73 7.23C4.37 8.07 4.28 9 4.46 9.9C4.64 10.79 5.08 11.62 5.73 12.26C6.37 12.91 7.2 13.35 8.09 13.53C8.99 13.71 9.92 13.61 10.76 13.26C11.61 12.92 12.33 12.32 12.84 11.56C13.35 10.8 13.62 9.91 13.62 9C13.62 7.77 13.13 6.59 12.26 5.73C11.4 4.86 10.22 4.37 9 4.37ZM9 12C8.4 12 7.82 11.82 7.33 11.49C6.83 11.16 6.45 10.69 6.22 10.14C6 9.59 5.94 8.99 6.05 8.41C6.17 7.83 6.45 7.29 6.87 6.87C7.29 6.45 7.83 6.17 8.41 6.05C8.99 5.94 9.59 6 10.14 6.22C10.69 6.45 11.16 6.83 11.49 7.33C11.82 7.82 12 8.4 12 9C12 9.79 11.68 10.55 11.12 11.12C10.55 11.68 9.79 12 9 12Z" fill="#FFFFFF" fill-opacity="1.000000" fill-rule="evenodd"/>
</svg>
