<svg width="18.000000" height="17.925049" viewBox="0 0 18 17.925" fill="none" xmlns="http://www.w3.org/2000/svg" xmlns:xlink="http://www.w3.org/1999/xlink">
	<desc>
			Created with Pixso.
	</desc>
	<defs/>
	<path id="Vector" d="M16.65 0L1.34 0C0.59 0 0 0.6 0 1.27L0 16.64C0 17.32 0.59 17.92 1.34 17.92L16.65 17.92C17.4 17.92 18 17.32 18 16.64L18 1.27C18 0.6 17.4 0 16.65 0ZM5.32 15.3L2.7 15.3L2.7 6.75L5.32 6.75L5.32 15.3ZM4.04 5.55C3.22 5.55 2.47 4.87 2.47 3.97C2.47 3.07 3.15 2.39 4.04 2.39C4.87 2.39 5.62 3.07 5.62 3.97C5.62 4.87 4.87 5.55 4.04 5.55ZM15.37 15.22L12.75 15.22L12.75 11.02C12.75 10.05 12.75 8.69 11.32 8.69C9.9 8.69 9.75 9.82 9.75 10.87L9.75 15.14L7.12 15.14L7.12 6.75L9.59 6.75L9.59 7.87L9.67 7.87C10.04 7.19 10.95 6.44 12.22 6.44C14.92 6.44 15.45 8.25 15.45 10.57L15.45 15.22L15.37 15.22Z" fill="#FFFFFF" fill-opacity="1.000000" fill-rule="nonzero"/>
</svg>
