<svg width="20.928711" height="21.000732" viewBox="0 0 20.9287 21.0007" fill="none" xmlns="http://www.w3.org/2000/svg" xmlns:xlink="http://www.w3.org/1999/xlink">
	<desc>
			Created with Pixso.
	</desc>
	<defs/>
	<path id="Vector" d="M10.42 0C7.99 0.01 5.64 0.87 3.77 2.43C1.9 3.99 0.63 6.15 0.18 8.55C-0.27 10.94 0.12 13.41 1.29 15.55C2.46 17.68 4.34 19.34 6.6 20.25C6.45 19.25 6.45 18.24 6.6 17.25L7.84 12C7.64 11.52 7.54 11.01 7.55 10.5C7.55 9.04 8.4 7.94 9.45 7.94C9.64 7.94 9.83 7.98 10 8.06C10.18 8.13 10.33 8.25 10.46 8.39C10.58 8.53 10.68 8.7 10.73 8.88C10.79 9.06 10.8 9.26 10.78 9.44C10.78 10.35 10.21 11.7 9.91 12.94C9.84 13.17 9.83 13.42 9.88 13.65C9.93 13.89 10.04 14.11 10.19 14.29C10.35 14.48 10.54 14.63 10.76 14.72C10.98 14.82 11.23 14.86 11.47 14.84C13.33 14.84 14.77 12.87 14.77 10.03C14.79 9.45 14.68 8.88 14.47 8.35C14.25 7.81 13.93 7.33 13.52 6.92C13.1 6.52 12.61 6.21 12.07 6.01C11.53 5.81 10.95 5.72 10.38 5.76C9.76 5.73 9.15 5.83 8.58 6.04C8 6.26 7.48 6.59 7.03 7.02C6.59 7.45 6.24 7.96 6 8.52C5.76 9.09 5.64 9.7 5.64 10.32C5.63 11.17 5.89 12.01 6.39 12.71C6.42 12.75 6.45 12.8 6.46 12.85C6.48 12.9 6.48 12.96 6.46 13.01C6.38 13.34 6.2 14.06 6.17 14.2C6.14 14.34 6.01 14.43 5.82 14.34C4.51 13.73 3.69 11.82 3.69 10.27C3.69 6.96 6.1 3.92 10.63 3.92C14.26 3.92 17.1 6.51 17.1 9.98C17.1 13.6 14.85 16.51 11.65 16.51C11.18 16.53 10.71 16.43 10.29 16.22C9.87 16.01 9.51 15.69 9.24 15.31L8.59 17.81C8.27 18.78 7.83 19.7 7.28 20.56C8.3 20.86 9.36 21.01 10.42 21C13.21 21 15.88 19.89 17.85 17.92C19.82 15.95 20.92 13.28 20.92 10.5C20.92 7.71 19.82 5.04 17.85 3.07C15.88 1.1 13.21 0 10.42 0Z" fill="#FFFFFF" fill-opacity="1.000000" fill-rule="nonzero"/>
</svg>
