<svg width="19.374023" height="19.419189" viewBox="0 0 19.374 19.4192" fill="none" xmlns="http://www.w3.org/2000/svg" xmlns:xlink="http://www.w3.org/1999/xlink">
	<desc>
			Created with Pixso.
	</desc>
	<defs/>
	<path id="Vector" d="M18.62 11.11C18.69 10.65 18.73 10.18 18.73 9.7C18.73 7.31 17.77 5.01 16.08 3.31C14.38 1.61 12.08 0.66 9.68 0.66C9.21 0.66 8.74 0.7 8.27 0.77C7.23 0.15 6 -0.11 4.79 0.04C3.58 0.19 2.46 0.73 1.6 1.6C0.73 2.46 0.19 3.58 0.04 4.79C-0.11 6 0.15 7.23 0.77 8.27C0.69 8.75 0.64 9.22 0.64 9.7C0.64 12.1 1.59 14.4 3.29 16.1C4.98 17.8 7.28 18.75 9.68 18.75C10.15 18.75 10.63 18.71 11.09 18.64C12.14 19.26 13.36 19.52 14.57 19.37C15.78 19.22 16.91 18.67 17.77 17.81C18.63 16.95 19.18 15.83 19.33 14.62C19.48 13.41 19.22 12.18 18.59 11.14L18.62 11.11ZM13.98 13.81C13.56 14.4 12.97 14.85 12.3 15.11C11.47 15.44 10.58 15.6 9.69 15.58C8.65 15.62 7.62 15.41 6.68 14.95C6.14 14.66 5.67 14.24 5.32 13.73C5 13.3 4.81 12.77 4.79 12.23C4.79 12.09 4.82 11.95 4.87 11.82C4.93 11.69 5.01 11.58 5.12 11.48C5.34 11.29 5.63 11.19 5.93 11.2C6.18 11.2 6.42 11.29 6.62 11.44C6.82 11.64 6.99 11.88 7.09 12.15C7.22 12.46 7.38 12.76 7.58 13.03C7.78 13.29 8.04 13.49 8.33 13.62C8.73 13.79 9.16 13.87 9.6 13.85C10.22 13.88 10.83 13.72 11.35 13.39C11.56 13.27 11.72 13.1 11.84 12.9C11.96 12.7 12.02 12.47 12.02 12.24C12.03 12.08 12 11.91 11.94 11.76C11.88 11.61 11.79 11.48 11.67 11.36C11.4 11.12 11.08 10.94 10.73 10.84C10.34 10.71 9.83 10.58 9.17 10.44C8.42 10.27 7.69 10.02 6.99 9.7C6.44 9.48 5.95 9.12 5.57 8.65C5.21 8.18 5.03 7.59 5.05 7C5.04 6.39 5.24 5.8 5.6 5.32C6.02 4.8 6.58 4.41 7.21 4.19C8 3.93 8.84 3.81 9.68 3.83C10.34 3.82 10.99 3.91 11.62 4.09C12.12 4.24 12.58 4.48 13 4.78C13.32 5.03 13.59 5.34 13.79 5.69C13.95 5.98 14.04 6.3 14.05 6.63C14.05 6.77 14.02 6.91 13.96 7.04C13.91 7.17 13.83 7.28 13.72 7.38C13.62 7.49 13.5 7.58 13.36 7.64C13.22 7.7 13.07 7.73 12.92 7.72C12.68 7.74 12.44 7.67 12.25 7.51C12.06 7.33 11.89 7.1 11.77 6.86C11.58 6.48 11.31 6.14 10.98 5.88C10.54 5.61 10.03 5.49 9.52 5.53C8.99 5.51 8.47 5.64 8.02 5.91C7.85 6 7.71 6.13 7.61 6.28C7.51 6.44 7.46 6.62 7.45 6.81C7.44 7.01 7.51 7.21 7.63 7.37C7.78 7.55 7.97 7.69 8.17 7.78C8.39 7.9 8.63 7.99 8.87 8.05C9.1 8.12 9.5 8.22 10.04 8.35C10.73 8.5 11.35 8.66 11.91 8.84C12.41 9 12.89 9.22 13.33 9.5C13.72 9.75 14.04 10.08 14.26 10.48C14.48 10.94 14.58 11.45 14.56 11.95C14.56 12.62 14.36 13.27 13.98 13.81Z" fill="#FFFFFF" fill-opacity="1.000000" fill-rule="nonzero"/>
</svg>
