<svg width="16.500000" height="13.407959" viewBox="0 0 16.5 13.408" fill="none" xmlns="http://www.w3.org/2000/svg" xmlns:xlink="http://www.w3.org/1999/xlink">
	<desc>
			Created with Pixso.
	</desc>
	<defs/>
	<path id="Vector" d="M5.19 13.4C6.45 13.41 7.71 13.17 8.88 12.69C10.05 12.2 11.12 11.5 12.01 10.6C12.91 9.7 13.62 8.64 14.1 7.47C14.58 6.3 14.82 5.04 14.82 3.77C14.82 3.62 14.82 3.48 14.82 3.33C15.47 2.85 16.04 2.26 16.5 1.58C15.88 1.85 15.22 2.03 14.55 2.12C15.26 1.69 15.8 1.03 16.05 0.24C15.39 0.64 14.66 0.92 13.91 1.07C13.4 0.52 12.72 0.16 11.99 0.04C11.25 -0.08 10.5 0.04 9.84 0.39C9.18 0.75 8.66 1.3 8.35 1.98C8.04 2.66 7.96 3.42 8.13 4.15C6.79 4.08 5.47 3.73 4.27 3.12C3.07 2.52 2.01 1.66 1.16 0.62C0.73 1.36 0.6 2.24 0.79 3.07C0.99 3.91 1.49 4.64 2.21 5.12C1.68 5.09 1.17 4.95 0.71 4.7L0.71 4.73C0.7 5.51 0.96 6.26 1.45 6.87C1.93 7.48 2.61 7.9 3.37 8.07C2.88 8.2 2.37 8.22 1.87 8.13C2.09 8.79 2.51 9.37 3.07 9.79C3.63 10.2 4.31 10.43 5 10.45C3.81 11.41 2.33 11.94 0.8 11.95C0.53 11.94 0.26 11.92 0 11.88C1.54 12.87 3.35 13.39 5.19 13.38L5.19 13.4Z" fill="#FFFFFF" fill-opacity="1.000000" fill-rule="nonzero"/>
</svg>
